<?xml version="1.0" encoding="UTF-8"?>
<svg xmlns="http://www.w3.org/2000/svg" xmlns:xlink="http://www.w3.org/1999/xlink" width="4000" height="4000" viewBox="0 0 4000 4000">
<defs>
<clipPath id="clip-0">
<path clip-rule="nonzero" d="M 800 0 L 3200 0 C 3641.828125 0 4000 358.171875 4000 800 L 4000 3200 C 4000 3641.828125 3641.828125 4000 3200 4000 L 800 4000 C 358.171875 4000 0 3641.828125 0 3200 L 0 800 C 0 358.171875 358.171875 0 800 0 Z M 800 0 "/>
</clipPath>
<clipPath id="clip-1">
<path clip-rule="nonzero" d="M 800 0 L 3200 0 C 3641.828125 0 4000 358.171875 4000 800 L 4000 3200 C 4000 3641.828125 3641.828125 4000 3200 4000 L 800 4000 C 358.171875 4000 0 3641.828125 0 3200 L 0 800 C 0 358.171875 358.171875 0 800 0 "/>
</clipPath>
<linearGradient id="linear-pattern-0" gradientUnits="userSpaceOnUse" x1="-0.0663516" y1="0" x2="1.066353" y2="0" gradientTransform="matrix(3531.37, -3531.37, -3531.37, -3531.37, 234.314, 3765.69)">
<stop offset="0" stop-color="rgb(48.236084%, 80.888367%, 45.602417%)" stop-opacity="1"/>
<stop offset="0.03125" stop-color="rgb(48.236084%, 80.888367%, 45.602417%)" stop-opacity="1"/>
<stop offset="0.046875" stop-color="rgb(48.236084%, 80.888367%, 45.602417%)" stop-opacity="1"/>
<stop offset="0.0546875" stop-color="rgb(48.236084%, 80.888367%, 45.602417%)" stop-opacity="1"/>
<stop offset="0.0585938" stop-color="rgb(48.040771%, 80.821228%, 45.480347%)" stop-opacity="1"/>
<stop offset="0.0625" stop-color="rgb(47.843933%, 80.752563%, 45.35675%)" stop-opacity="1"/>
<stop offset="0.0703125" stop-color="rgb(47.824097%, 80.74646%, 45.344543%)" stop-opacity="1"/>
<stop offset="0.0742188" stop-color="rgb(47.608948%, 80.537415%, 45.202637%)" stop-opacity="1"/>
<stop offset="0.078125" stop-color="rgb(47.413635%, 80.335999%, 45.071411%)" stop-opacity="1"/>
<stop offset="0.0820312" stop-color="rgb(47.253418%, 80.250549%, 44.93866%)" stop-opacity="1"/>
<stop offset="0.0859375" stop-color="rgb(47.093201%, 80.162048%, 44.805908%)" stop-opacity="1"/>
<stop offset="0.0898438" stop-color="rgb(46.914673%, 79.957581%, 44.657898%)" stop-opacity="1"/>
<stop offset="0.09375" stop-color="rgb(46.733093%, 79.751587%, 44.509888%)" stop-opacity="1"/>
<stop offset="0.0976562" stop-color="rgb(46.548462%, 79.594421%, 44.371033%)" stop-opacity="1"/>
<stop offset="0.101562" stop-color="rgb(46.362305%, 79.437256%, 44.233704%)" stop-opacity="1"/>
<stop offset="0.105469" stop-color="rgb(46.182251%, 79.246521%, 44.177246%)" stop-opacity="1"/>
<stop offset="0.109375" stop-color="rgb(46.000671%, 79.055786%, 44.122314%)" stop-opacity="1"/>
<stop offset="0.113281" stop-color="rgb(45.806885%, 78.988647%, 43.994141%)" stop-opacity="1"/>
<stop offset="0.117188" stop-color="rgb(45.611572%, 78.923035%, 43.864441%)" stop-opacity="1"/>
<stop offset="0.121094" stop-color="rgb(45.518494%, 78.75824%, 43.782043%)" stop-opacity="1"/>
<stop offset="0.125" stop-color="rgb(45.423889%, 78.593445%, 43.69812%)" stop-opacity="1"/>
<stop offset="0.128906" stop-color="rgb(45.227051%, 78.44696%, 43.56842%)" stop-opacity="1"/>
<stop offset="0.132812" stop-color="rgb(45.028687%, 78.297424%, 43.437195%)" stop-opacity="1"/>
<stop offset="0.136719" stop-color="rgb(44.837952%, 78.092957%, 43.296814%)" stop-opacity="1"/>
<stop offset="0.140625" stop-color="rgb(44.647217%, 77.888489%, 43.156433%)" stop-opacity="1"/>
<stop offset="0.144531" stop-color="rgb(44.456482%, 77.69165%, 43.16864%)" stop-opacity="1"/>
<stop offset="0.148438" stop-color="rgb(44.265747%, 77.496338%, 43.182373%)" stop-opacity="1"/>
<stop offset="0.152344" stop-color="rgb(44.221497%, 77.442932%, 43.032837%)" stop-opacity="1"/>
<stop offset="0.15625" stop-color="rgb(44.177246%, 77.389526%, 42.883301%)" stop-opacity="1"/>
<stop offset="0.160156" stop-color="rgb(44.000244%, 77.206421%, 42.895508%)" stop-opacity="1"/>
<stop offset="0.164062" stop-color="rgb(43.82019%, 77.02179%, 42.907715%)" stop-opacity="1"/>
<stop offset="0.167969" stop-color="rgb(43.65387%, 76.843262%, 42.76886%)" stop-opacity="1"/>
<stop offset="0.171875" stop-color="rgb(43.484497%, 76.663208%, 42.630005%)" stop-opacity="1"/>
<stop offset="0.175781" stop-color="rgb(43.29834%, 76.464844%, 42.492676%)" stop-opacity="1"/>
<stop offset="0.179688" stop-color="rgb(43.110657%, 76.264954%, 42.355347%)" stop-opacity="1"/>
<stop offset="0.183594" stop-color="rgb(42.919922%, 76.194763%, 42.240906%)" stop-opacity="1"/>
<stop offset="0.1875" stop-color="rgb(42.726135%, 76.121521%, 42.124939%)" stop-opacity="1"/>
<stop offset="0.191406" stop-color="rgb(42.71698%, 75.979614%, 42.085266%)" stop-opacity="1"/>
<stop offset="0.195312" stop-color="rgb(42.707825%, 75.837708%, 42.044067%)" stop-opacity="1"/>
<stop offset="0.199219" stop-color="rgb(42.521667%, 75.640869%, 41.929626%)" stop-opacity="1"/>
<stop offset="0.203125" stop-color="rgb(42.333984%, 75.442505%, 41.815186%)" stop-opacity="1"/>
<stop offset="0.207031" stop-color="rgb(42.146301%, 75.244141%, 41.682434%)" stop-opacity="1"/>
<stop offset="0.210938" stop-color="rgb(41.958618%, 75.047302%, 41.548157%)" stop-opacity="1"/>
<stop offset="0.214844" stop-color="rgb(41.789246%, 74.723816%, 41.343689%)" stop-opacity="1"/>
<stop offset="0.21875" stop-color="rgb(41.621399%, 74.401855%, 41.137695%)" stop-opacity="1"/>
<stop offset="0.222656" stop-color="rgb(41.319275%, 74.172974%, 41.020203%)" stop-opacity="1"/>
<stop offset="0.226562" stop-color="rgb(41.018677%, 73.945618%, 40.90271%)" stop-opacity="1"/>
<stop offset="0.230469" stop-color="rgb(40.846252%, 73.756409%, 40.827942%)" stop-opacity="1"/>
<stop offset="0.234375" stop-color="rgb(40.672302%, 73.5672%, 40.753174%)" stop-opacity="1"/>
<stop offset="0.242187" stop-color="rgb(40.58075%, 73.471069%, 40.682983%)" stop-opacity="1"/>
<stop offset="0.246094" stop-color="rgb(40.304565%, 73.191833%, 40.563965%)" stop-opacity="1"/>
<stop offset="0.25" stop-color="rgb(40.118408%, 73.010254%, 40.512085%)" stop-opacity="1"/>
<stop offset="0.253906" stop-color="rgb(39.944458%, 72.747803%, 40.422058%)" stop-opacity="1"/>
<stop offset="0.257813" stop-color="rgb(39.772034%, 72.485352%, 40.328979%)" stop-opacity="1"/>
<stop offset="0.261719" stop-color="rgb(39.587402%, 72.297668%, 40.29541%)" stop-opacity="1"/>
<stop offset="0.265625" stop-color="rgb(39.404297%, 72.111511%, 40.263367%)" stop-opacity="1"/>
<stop offset="0.269531" stop-color="rgb(39.358521%, 72.058105%, 40.124512%)" stop-opacity="1"/>
<stop offset="0.273438" stop-color="rgb(39.309692%, 72.003174%, 39.984131%)" stop-opacity="1"/>
<stop offset="0.277344" stop-color="rgb(39.080811%, 71.717834%, 39.796448%)" stop-opacity="1"/>
<stop offset="0.28125" stop-color="rgb(38.851929%, 71.434021%, 39.608765%)" stop-opacity="1"/>
<stop offset="0.285156" stop-color="rgb(38.705444%, 71.131897%, 39.460754%)" stop-opacity="1"/>
<stop offset="0.289062" stop-color="rgb(38.557434%, 70.831299%, 39.312744%)" stop-opacity="1"/>
<stop offset="0.292969" stop-color="rgb(38.563538%, 70.698547%, 39.282227%)" stop-opacity="1"/>
<stop offset="0.296875" stop-color="rgb(38.568115%, 70.565796%, 39.250183%)" stop-opacity="1"/>
<stop offset="0.300781" stop-color="rgb(38.206482%, 70.462036%, 39.187622%)" stop-opacity="1"/>
<stop offset="0.304688" stop-color="rgb(37.846375%, 70.358276%, 39.125061%)" stop-opacity="1"/>
<stop offset="0.308594" stop-color="rgb(37.67395%, 70.193481%, 39.009094%)" stop-opacity="1"/>
<stop offset="0.3125" stop-color="rgb(37.501526%, 70.030212%, 38.893127%)" stop-opacity="1"/>
<stop offset="0.320312" stop-color="rgb(37.504578%, 69.906616%, 38.742065%)" stop-opacity="1"/>
<stop offset="0.324219" stop-color="rgb(37.387085%, 69.522095%, 38.449097%)" stop-opacity="1"/>
<stop offset="0.328125" stop-color="rgb(37.265015%, 69.262695%, 38.308716%)" stop-opacity="1"/>
<stop offset="0.332031" stop-color="rgb(37.057495%, 68.980408%, 38.134766%)" stop-opacity="1"/>
<stop offset="0.335938" stop-color="rgb(36.84845%, 68.699646%, 37.95929%)" stop-opacity="1"/>
<stop offset="0.34375" stop-color="rgb(36.6745%, 68.515015%, 37.934875%)" stop-opacity="1"/>
<stop offset="0.351562" stop-color="rgb(36.340332%, 68.165588%, 37.828064%)" stop-opacity="1"/>
<stop offset="0.359375" stop-color="rgb(36.021423%, 67.840576%, 37.632751%)" stop-opacity="1"/>
<stop offset="0.367187" stop-color="rgb(35.702515%, 67.515564%, 37.40387%)" stop-opacity="1"/>
<stop offset="0.375" stop-color="rgb(35.346985%, 67.120361%, 37.138367%)" stop-opacity="1"/>
<stop offset="0.382813" stop-color="rgb(34.968567%, 66.680908%, 36.845398%)" stop-opacity="1"/>
<stop offset="0.390625" stop-color="rgb(34.629822%, 66.316223%, 36.66687%)" stop-opacity="1"/>
<stop offset="0.398438" stop-color="rgb(34.284973%, 65.945435%, 36.547852%)" stop-opacity="1"/>
<stop offset="0.40625" stop-color="rgb(33.995056%, 65.534973%, 36.306763%)" stop-opacity="1"/>
<stop offset="0.414062" stop-color="rgb(33.813477%, 65.159607%, 35.986328%)" stop-opacity="1"/>
<stop offset="0.421875" stop-color="rgb(33.537292%, 64.797974%, 35.739136%)" stop-opacity="1"/>
<stop offset="0.429688" stop-color="rgb(33.169556%, 64.535522%, 35.635376%)" stop-opacity="1"/>
<stop offset="0.4375" stop-color="rgb(32.827759%, 64.265442%, 35.496521%)" stop-opacity="1"/>
<stop offset="0.441406" stop-color="rgb(32.467651%, 63.813782%, 35.246277%)" stop-opacity="1"/>
<stop offset="0.445312" stop-color="rgb(32.278442%, 63.551331%, 35.122681%)" stop-opacity="1"/>
<stop offset="0.449219" stop-color="rgb(32.12738%, 63.319397%, 35.089111%)" stop-opacity="1"/>
<stop offset="0.453125" stop-color="rgb(31.973267%, 63.084412%, 35.055542%)" stop-opacity="1"/>
<stop offset="0.460938" stop-color="rgb(31.748962%, 62.911987%, 34.90448%)" stop-opacity="1"/>
<stop offset="0.46875" stop-color="rgb(31.318665%, 62.480164%, 34.585571%)" stop-opacity="1"/>
<stop offset="0.472656" stop-color="rgb(30.935669%, 61.967468%, 34.268188%)" stop-opacity="1"/>
<stop offset="0.476562" stop-color="rgb(30.758667%, 61.714172%, 34.115601%)" stop-opacity="1"/>
<stop offset="0.480469" stop-color="rgb(30.787659%, 61.502075%, 34.072876%)" stop-opacity="1"/>
<stop offset="0.484375" stop-color="rgb(30.81665%, 61.289978%, 34.028625%)" stop-opacity="1"/>
<stop offset="0.492187" stop-color="rgb(30.615234%, 61.036682%, 33.865356%)" stop-opacity="1"/>
<stop offset="0.5" stop-color="rgb(30.212402%, 60.53009%, 33.540344%)" stop-opacity="1"/>
<stop offset="0.507812" stop-color="rgb(29.978943%, 60.067749%, 33.297729%)" stop-opacity="1"/>
<stop offset="0.515625" stop-color="rgb(29.808044%, 59.709167%, 33.120728%)" stop-opacity="1"/>
<stop offset="0.523438" stop-color="rgb(29.475403%, 59.32312%, 32.868958%)" stop-opacity="1"/>
<stop offset="0.53125" stop-color="rgb(29.086304%, 58.837891%, 32.557678%)" stop-opacity="1"/>
<stop offset="0.539062" stop-color="rgb(28.813171%, 58.460999%, 32.322693%)" stop-opacity="1"/>
<stop offset="0.546875" stop-color="rgb(28.573608%, 58.117676%, 32.10907%)" stop-opacity="1"/>
<stop offset="0.554688" stop-color="rgb(28.340149%, 57.687378%, 31.791687%)" stop-opacity="1"/>
<stop offset="0.5625" stop-color="rgb(28.128052%, 57.240295%, 31.445312%)" stop-opacity="1"/>
<stop offset="0.570313" stop-color="rgb(27.79541%, 56.768799%, 31.12793%)" stop-opacity="1"/>
<stop offset="0.578125" stop-color="rgb(27.429199%, 56.413269%, 30.870056%)" stop-opacity="1"/>
<stop offset="0.585938" stop-color="rgb(27.076721%, 56.14624%, 30.709839%)" stop-opacity="1"/>
<stop offset="0.59375" stop-color="rgb(26.797485%, 55.776978%, 30.537415%)" stop-opacity="1"/>
<stop offset="0.601562" stop-color="rgb(26.593018%, 55.343628%, 30.307007%)" stop-opacity="1"/>
<stop offset="0.609375" stop-color="rgb(26.300049%, 54.893494%, 30.107117%)" stop-opacity="1"/>
<stop offset="0.617188" stop-color="rgb(25.987244%, 54.483032%, 29.86145%)" stop-opacity="1"/>
<stop offset="0.621094" stop-color="rgb(25.744629%, 54.115295%, 29.524231%)" stop-opacity="1"/>
<stop offset="0.625" stop-color="rgb(25.627136%, 53.926086%, 29.342651%)" stop-opacity="1"/>
<stop offset="0.628906" stop-color="rgb(25.413513%, 53.630066%, 29.159546%)" stop-opacity="1"/>
<stop offset="0.632812" stop-color="rgb(25.19989%, 53.334045%, 28.974915%)" stop-opacity="1"/>
<stop offset="0.640625" stop-color="rgb(25.065613%, 53.115845%, 28.820801%)" stop-opacity="1"/>
<stop offset="0.648438" stop-color="rgb(24.8703%, 52.694702%, 28.497314%)" stop-opacity="1"/>
<stop offset="0.65625" stop-color="rgb(24.662781%, 52.272034%, 28.178406%)" stop-opacity="1"/>
<stop offset="0.664062" stop-color="rgb(24.464417%, 51.872253%, 27.880859%)" stop-opacity="1"/>
<stop offset="0.671875" stop-color="rgb(24.212646%, 51.548767%, 27.694702%)" stop-opacity="1"/>
<stop offset="0.679687" stop-color="rgb(23.835754%, 51.191711%, 27.519226%)" stop-opacity="1"/>
<stop offset="0.683594" stop-color="rgb(23.457336%, 50.837708%, 27.259827%)" stop-opacity="1"/>
<stop offset="0.6875" stop-color="rgb(23.257446%, 50.697327%, 27.137756%)" stop-opacity="1"/>
<stop offset="0.691406" stop-color="rgb(23.042297%, 50.384521%, 27.044678%)" stop-opacity="1"/>
<stop offset="0.695312" stop-color="rgb(22.827148%, 50.07019%, 26.951599%)" stop-opacity="1"/>
<stop offset="0.703125" stop-color="rgb(22.807312%, 49.884033%, 26.780701%)" stop-opacity="1"/>
<stop offset="0.710938" stop-color="rgb(22.621155%, 49.479675%, 26.473999%)" stop-opacity="1"/>
<stop offset="0.71875" stop-color="rgb(22.425842%, 49.076843%, 26.170349%)" stop-opacity="1"/>
<stop offset="0.722656" stop-color="rgb(22.183228%, 48.669434%, 25.830078%)" stop-opacity="1"/>
<stop offset="0.726562" stop-color="rgb(21.969604%, 48.451233%, 25.656128%)" stop-opacity="1"/>
<stop offset="0.730469" stop-color="rgb(21.792603%, 48.236084%, 25.517273%)" stop-opacity="1"/>
<stop offset="0.734375" stop-color="rgb(21.614075%, 48.022461%, 25.379944%)" stop-opacity="1"/>
<stop offset="0.742188" stop-color="rgb(21.44928%, 47.81189%, 25.248718%)" stop-opacity="1"/>
<stop offset="0.75" stop-color="rgb(21.231079%, 47.412109%, 24.961853%)" stop-opacity="1"/>
<stop offset="0.753906" stop-color="rgb(21.025085%, 46.95282%, 24.627686%)" stop-opacity="1"/>
<stop offset="0.757812" stop-color="rgb(20.86792%, 46.682739%, 24.450684%)" stop-opacity="1"/>
<stop offset="0.761719" stop-color="rgb(20.776367%, 46.525574%, 24.357605%)" stop-opacity="1"/>
<stop offset="0.765625" stop-color="rgb(20.684814%, 46.366882%, 24.264526%)" stop-opacity="1"/>
<stop offset="0.773438" stop-color="rgb(20.56427%, 46.200562%, 24.163818%)" stop-opacity="1"/>
<stop offset="0.777344" stop-color="rgb(20.24231%, 45.820618%, 23.910522%)" stop-opacity="1"/>
<stop offset="0.78125" stop-color="rgb(20.042419%, 45.610046%, 23.757935%)" stop-opacity="1"/>
<stop offset="0.785156" stop-color="rgb(19.935608%, 45.41626%, 23.596191%)" stop-opacity="1"/>
<stop offset="0.789062" stop-color="rgb(19.830322%, 45.223999%, 23.434448%)" stop-opacity="1"/>
<stop offset="0.792969" stop-color="rgb(19.717407%, 44.984436%, 23.266602%)" stop-opacity="1"/>
<stop offset="0.796875" stop-color="rgb(19.604492%, 44.744873%, 23.098755%)" stop-opacity="1"/>
<stop offset="0.800781" stop-color="rgb(19.425964%, 44.496155%, 22.993469%)" stop-opacity="1"/>
<stop offset="0.804688" stop-color="rgb(19.245911%, 44.248962%, 22.889709%)" stop-opacity="1"/>
<stop offset="0.808594" stop-color="rgb(19.132996%, 44.075012%, 22.772217%)" stop-opacity="1"/>
<stop offset="0.8125" stop-color="rgb(19.020081%, 43.901062%, 22.654724%)" stop-opacity="1"/>
<stop offset="0.816406" stop-color="rgb(18.988037%, 43.688965%, 22.540283%)" stop-opacity="1"/>
<stop offset="0.820313" stop-color="rgb(18.95752%, 43.478394%, 22.424316%)" stop-opacity="1"/>
<stop offset="0.824219" stop-color="rgb(18.792725%, 43.263245%, 22.293091%)" stop-opacity="1"/>
<stop offset="0.828125" stop-color="rgb(18.62793%, 43.048096%, 22.161865%)" stop-opacity="1"/>
<stop offset="0.832031" stop-color="rgb(18.55011%, 42.866516%, 21.966553%)" stop-opacity="1"/>
<stop offset="0.835938" stop-color="rgb(18.473816%, 42.684937%, 21.77124%)" stop-opacity="1"/>
<stop offset="0.839844" stop-color="rgb(18.357849%, 42.443848%, 21.604919%)" stop-opacity="1"/>
<stop offset="0.84375" stop-color="rgb(18.244934%, 42.202759%, 21.437073%)" stop-opacity="1"/>
<stop offset="0.847656" stop-color="rgb(18.125916%, 42.030334%, 21.258545%)" stop-opacity="1"/>
<stop offset="0.851562" stop-color="rgb(18.008423%, 41.859436%, 21.078491%)" stop-opacity="1"/>
<stop offset="0.855469" stop-color="rgb(17.810059%, 41.58783%, 20.930481%)" stop-opacity="1"/>
<stop offset="0.859375" stop-color="rgb(17.61322%, 41.317749%, 20.782471%)" stop-opacity="1"/>
<stop offset="0.863281" stop-color="rgb(17.593384%, 41.140747%, 20.629883%)" stop-opacity="1"/>
<stop offset="0.867188" stop-color="rgb(17.572021%, 40.962219%, 20.477295%)" stop-opacity="1"/>
<stop offset="0.871094" stop-color="rgb(17.379761%, 40.670776%, 20.217896%)" stop-opacity="1"/>
<stop offset="0.875" stop-color="rgb(17.1875%, 40.379333%, 19.958496%)" stop-opacity="1"/>
<stop offset="0.878906" stop-color="rgb(17.146301%, 40.266418%, 19.813538%)" stop-opacity="1"/>
<stop offset="0.882812" stop-color="rgb(17.105103%, 40.151978%, 19.665527%)" stop-opacity="1"/>
<stop offset="0.886719" stop-color="rgb(16.921997%, 39.900208%, 19.529724%)" stop-opacity="1"/>
<stop offset="0.890625" stop-color="rgb(16.740417%, 39.646912%, 19.392395%)" stop-opacity="1"/>
<stop offset="0.894531" stop-color="rgb(16.696167%, 39.411926%, 19.233704%)" stop-opacity="1"/>
<stop offset="0.898438" stop-color="rgb(16.651917%, 39.175415%, 19.075012%)" stop-opacity="1"/>
<stop offset="0.902344" stop-color="rgb(16.584778%, 38.95874%, 18.85376%)" stop-opacity="1"/>
<stop offset="0.90625" stop-color="rgb(16.516113%, 38.74054%, 18.634033%)" stop-opacity="1"/>
<stop offset="0.910156" stop-color="rgb(16.342163%, 38.540649%, 18.409729%)" stop-opacity="1"/>
<stop offset="0.914062" stop-color="rgb(16.168213%, 38.340759%, 18.188477%)" stop-opacity="1"/>
<stop offset="0.917969" stop-color="rgb(16.152954%, 38.171387%, 18.045044%)" stop-opacity="1"/>
<stop offset="0.921875" stop-color="rgb(16.137695%, 38.00354%, 17.903137%)" stop-opacity="1"/>
<stop offset="0.925781" stop-color="rgb(16.015625%, 37.779236%, 17.64679%)" stop-opacity="1"/>
<stop offset="0.929687" stop-color="rgb(15.893555%, 37.554932%, 17.393494%)" stop-opacity="1"/>
<stop offset="0.933594" stop-color="rgb(15.7547%, 37.315369%, 17.216492%)" stop-opacity="1"/>
<stop offset="0.9375" stop-color="rgb(15.615845%, 37.077332%, 17.03949%)" stop-opacity="1"/>
<stop offset="1" stop-color="rgb(15.617371%, 37.077332%, 16.969299%)" stop-opacity="1"/>
</linearGradient>
</defs>
<g clip-path="url(#clip-0)">
<g clip-path="url(#clip-1)">
<path fill-rule="nonzero" fill="url(#linear-pattern-0)" d="M 2000 6000 L -2000 2000 L 2000 -2000 L 6000 2000 Z M 2000 6000 "/>
</g>
</g>
<path fill-rule="nonzero" fill="rgb(10.852051%, 10.176086%, 9.838867%)" fill-opacity="1" d="M 1125.878906 3004.28125 C 1084.46875 3004.261719 1050.898438 2970.691406 1050.878906 2929.28125 L 1050.878906 2592.800781 L 1046.878906 2592.800781 C 850.761719 2592.578125 691.839844 2433.640625 691.640625 2237.519531 L 691.640625 1728 C 691.640625 1686.578125 725.21875 1653 766.640625 1653 C 808.0625 1653 841.640625 1686.578125 841.640625 1728 L 841.640625 2237.519531 C 841.75 2350.828125 933.566406 2442.671875 1046.878906 2442.800781 L 1125.761719 2442.800781 C 1167.160156 2442.78125 1200.738281 2476.320312 1200.761719 2517.71875 C 1200.761719 2517.75 1200.761719 2517.769531 1200.761719 2517.800781 L 1200.761719 2929.28125 C 1200.761719 2970.648438 1167.25 3004.210938 1125.878906 3004.28125 "/>
<path fill-rule="nonzero" fill="rgb(10.852051%, 10.176086%, 9.838867%)" fill-opacity="1" d="M 1416.679688 2197.238281 L 1326.238281 2197.238281 L 1326.238281 1949.558594 L 1568 1949.558594 C 1621.449219 1949.558594 1664.78125 1906.230469 1664.78125 1852.78125 C 1664.78125 1799.328125 1621.449219 1756 1568 1756 L 1326.238281 1756 L 1326.238281 1715.039062 C 1326.238281 1612.03125 1242.730469 1528.519531 1139.71875 1528.519531 C 1049.21875 1528.519531 975.832031 1601.820312 975.71875 1692.320312 L 975.71875 2201.761719 C 975.71875 2294.988281 1051.289062 2370.558594 1144.519531 2370.558594 L 1308 2370.558594 L 1408.441406 2727.398438 C 1430.800781 2802.730469 1509.96875 2845.699219 1585.320312 2823.398438 C 1660.699219 2801.050781 1703.691406 2721.828125 1681.339844 2646.449219 C 1681.039062 2645.429688 1680.71875 2644.410156 1680.398438 2643.398438 L 1575.601562 2313.28125 C 1553.421875 2244.210938 1489.21875 2197.339844 1416.679688 2197.238281 "/>
<path fill-rule="nonzero" fill="rgb(10.852051%, 10.176086%, 9.838867%)" fill-opacity="1" d="M 1095.921875 1122.691406 C 1183.691406 1101.96875 1271.628906 1156.328125 1292.339844 1244.089844 C 1313.058594 1331.859375 1258.699219 1419.800781 1170.929688 1440.511719 C 1083.171875 1461.230469 995.230469 1406.871094 974.515625 1319.109375 C 953.800781 1231.339844 1008.160156 1143.398438 1095.921875 1122.691406 "/>
<path fill-rule="nonzero" fill="rgb(10.852051%, 10.176086%, 9.838867%)" fill-opacity="1" d="M 3034.121094 3004.28125 C 2992.699219 3004.28125 2959.121094 2970.699219 2959.121094 2929.28125 L 2959.121094 2517.800781 C 2959.101562 2476.398438 2992.640625 2442.820312 3034.039062 2442.800781 C 3034.070312 2442.800781 3034.089844 2442.800781 3034.121094 2442.800781 L 3113 2442.800781 C 3226.308594 2442.671875 3318.128906 2350.828125 3318.238281 2237.519531 L 3318.238281 1728 C 3318.238281 1686.578125 3351.820312 1653 3393.238281 1653 C 3434.660156 1653 3468.238281 1686.578125 3468.238281 1728 L 3468.238281 2237.519531 C 3468.039062 2433.640625 3309.121094 2592.578125 3113 2592.800781 L 3109 2592.800781 L 3109 2929.28125 C 3108.980469 2970.648438 3075.488281 3004.191406 3034.121094 3004.28125 "/>
<path fill-rule="nonzero" fill="rgb(10.852051%, 10.176086%, 9.838867%)" fill-opacity="1" d="M 2743.320312 2197.238281 L 2833.761719 2197.238281 L 2833.761719 1949.558594 L 2592 1949.558594 C 2538.550781 1949.558594 2495.21875 1906.230469 2495.21875 1852.78125 C 2495.21875 1799.328125 2538.550781 1756 2592 1756 L 2833.679688 1756 L 2833.679688 1715.039062 C 2833.679688 1612.03125 2917.191406 1528.519531 3020.199219 1528.519531 C 3110.621094 1528.628906 3183.890625 1601.898438 3184 1692.320312 L 3184 2201.761719 C 3184 2294.988281 3108.429688 2370.558594 3015.199219 2370.558594 L 2852 2370.558594 L 2751.558594 2727.398438 C 2729.199219 2802.730469 2650.03125 2845.699219 2574.679688 2823.398438 C 2499.300781 2801.050781 2456.308594 2721.828125 2478.660156 2646.449219 C 2478.960938 2645.429688 2479.28125 2644.410156 2479.601562 2643.398438 L 2584.441406 2313.199219 C 2606.648438 2244.179688 2670.820312 2197.351562 2743.320312 2197.238281 "/>
<path fill-rule="nonzero" fill="rgb(10.852051%, 10.176086%, 9.838867%)" fill-opacity="1" d="M 2867.480469 1243.921875 C 2888.191406 1156.160156 2976.128906 1101.800781 3063.898438 1122.519531 C 3151.671875 1143.230469 3206.019531 1231.171875 3185.308594 1318.941406 C 3164.589844 1406.699219 3076.648438 1461.058594 2988.890625 1440.339844 C 2901.121094 1419.628906 2846.761719 1331.691406 2867.480469 1243.921875 "/>
<path fill-rule="nonzero" fill="rgb(10.852051%, 10.176086%, 9.838867%)" fill-opacity="1" d="M 2602.238281 2167.039062 L 1557.761719 2167.039062 C 1516.339844 2167.039062 1482.761719 2133.460938 1482.761719 2092.039062 C 1482.761719 2050.621094 1516.339844 2017.039062 1557.761719 2017.039062 L 2602.238281 2017.039062 C 2643.660156 2017.039062 2677.238281 2050.621094 2677.238281 2092.039062 C 2677.238281 2133.460938 2643.660156 2167.039062 2602.238281 2167.039062 "/>
<path fill-rule="nonzero" fill="rgb(10.852051%, 10.176086%, 9.838867%)" fill-opacity="1" d="M 2080 3004.28125 C 2038.578125 3004.28125 2005 2970.699219 2005 2929.28125 L 2005 2099.601562 C 2005 2058.179688 2038.578125 2024.601562 2080 2024.601562 C 2121.421875 2024.601562 2155 2058.179688 2155 2099.601562 L 2155 2929.28125 C 2155 2970.699219 2121.421875 3004.28125 2080 3004.28125 "/>
<path fill-rule="nonzero" fill="rgb(10.852051%, 10.176086%, 9.838867%)" fill-opacity="1" d="M 3505 3041.761719 L 655 3041.761719 C 613.578125 3041.761719 580 3008.179688 580 2966.761719 C 580 2925.339844 613.578125 2891.761719 655 2891.761719 L 3505 2891.761719 C 3546.421875 2891.761719 3580 2925.339844 3580 2966.761719 C 3580 3008.179688 3546.421875 3041.761719 3505 3041.761719 "/>
<path fill-rule="nonzero" fill="rgb(95.507812%, 94.9646%, 94.87915%)" fill-opacity="1" d="M 1045.878906 2924.28125 C 1004.46875 2924.261719 970.902344 2890.691406 970.878906 2849.28125 L 970.878906 2512.800781 L 966.878906 2512.800781 C 770.761719 2512.578125 611.839844 2353.640625 611.640625 2157.519531 L 611.640625 1648 C 611.640625 1606.578125 645.21875 1573 686.640625 1573 C 728.0625 1573 761.640625 1606.578125 761.640625 1648 L 761.640625 2157.519531 C 761.75 2270.828125 853.566406 2362.671875 966.878906 2362.800781 L 1045.761719 2362.800781 C 1087.160156 2362.78125 1120.738281 2396.320312 1120.761719 2437.71875 C 1120.761719 2437.75 1120.761719 2437.769531 1120.761719 2437.800781 L 1120.761719 2849.28125 C 1120.761719 2890.648438 1087.25 2924.210938 1045.878906 2924.28125 "/>
<path fill-rule="nonzero" fill="rgb(95.507812%, 94.9646%, 94.87915%)" fill-opacity="1" d="M 1336.679688 2117.238281 L 1246.238281 2117.238281 L 1246.238281 1869.558594 L 1488 1869.558594 C 1541.449219 1869.558594 1584.78125 1826.230469 1584.78125 1772.78125 C 1584.78125 1719.328125 1541.449219 1676 1488 1676 L 1246.238281 1676 L 1246.238281 1635.039062 C 1246.238281 1532.03125 1162.730469 1448.519531 1059.71875 1448.519531 C 969.222656 1448.519531 895.832031 1521.820312 895.71875 1612.320312 L 895.71875 2121.761719 C 895.71875 2214.988281 971.292969 2290.558594 1064.519531 2290.558594 L 1228 2290.558594 L 1328.441406 2647.398438 C 1350.800781 2722.730469 1429.96875 2765.699219 1505.320312 2743.398438 C 1580.699219 2721.050781 1623.691406 2641.828125 1601.339844 2566.449219 C 1601.039062 2565.429688 1600.71875 2564.410156 1600.398438 2563.398438 L 1495.601562 2233.28125 C 1473.421875 2164.210938 1409.21875 2117.339844 1336.679688 2117.238281 "/>
<path fill-rule="nonzero" fill="rgb(95.507812%, 94.9646%, 94.87915%)" fill-opacity="1" d="M 1015.921875 1042.679688 C 1103.691406 1021.96875 1191.628906 1076.320312 1212.339844 1164.089844 C 1233.058594 1251.851562 1178.699219 1339.789062 1090.941406 1360.511719 C 1003.171875 1381.21875 915.230469 1326.871094 894.515625 1239.101562 C 873.800781 1151.339844 928.15625 1063.398438 1015.921875 1042.679688 "/>
<path fill-rule="nonzero" fill="rgb(95.507812%, 94.9646%, 94.87915%)" fill-opacity="1" d="M 2954.121094 2924.28125 C 2912.699219 2924.28125 2879.121094 2890.699219 2879.121094 2849.28125 L 2879.121094 2437.800781 C 2879.101562 2396.398438 2912.640625 2362.820312 2954.039062 2362.800781 C 2954.070312 2362.800781 2954.089844 2362.800781 2954.121094 2362.800781 L 3033 2362.800781 C 3146.308594 2362.671875 3238.128906 2270.828125 3238.238281 2157.519531 L 3238.238281 1648 C 3238.238281 1606.578125 3271.820312 1573 3313.238281 1573 C 3354.660156 1573 3388.238281 1606.578125 3388.238281 1648 L 3388.238281 2157.519531 C 3388.039062 2353.640625 3229.121094 2512.578125 3033 2512.800781 L 3029 2512.800781 L 3029 2849.28125 C 3028.980469 2890.648438 2995.488281 2924.191406 2954.121094 2924.28125 "/>
<path fill-rule="nonzero" fill="rgb(95.507812%, 94.9646%, 94.87915%)" fill-opacity="1" d="M 2663.320312 2117.238281 L 2753.761719 2117.238281 L 2753.761719 1869.558594 L 2512 1869.558594 C 2458.550781 1869.558594 2415.21875 1826.230469 2415.21875 1772.78125 C 2415.21875 1719.328125 2458.550781 1676 2512 1676 L 2753.679688 1676 L 2753.679688 1635.039062 C 2753.679688 1532.03125 2837.191406 1448.519531 2940.199219 1448.519531 C 3030.621094 1448.628906 3103.890625 1521.898438 3104 1612.320312 L 3104 2121.761719 C 3104 2214.988281 3028.429688 2290.558594 2935.199219 2290.558594 L 2772 2290.558594 L 2671.558594 2647.398438 C 2649.199219 2722.730469 2570.03125 2765.699219 2494.679688 2743.398438 C 2419.300781 2721.050781 2376.308594 2641.828125 2398.660156 2566.449219 C 2398.960938 2565.429688 2399.28125 2564.410156 2399.601562 2563.398438 L 2504.441406 2233.199219 C 2526.648438 2164.179688 2590.820312 2117.351562 2663.320312 2117.238281 "/>
<path fill-rule="nonzero" fill="rgb(95.507812%, 94.9646%, 94.87915%)" fill-opacity="1" d="M 2787.519531 1163.929688 C 2808.238281 1076.160156 2896.179688 1021.808594 2983.941406 1042.519531 C 3071.710938 1063.230469 3126.058594 1151.179688 3105.351562 1238.941406 C 3084.628906 1326.710938 2996.691406 1381.058594 2908.929688 1360.351562 C 2821.160156 1339.628906 2766.808594 1251.691406 2787.519531 1163.929688 "/>
<path fill-rule="nonzero" fill="rgb(95.507812%, 94.9646%, 94.87915%)" fill-opacity="1" d="M 2522.238281 2087.039062 L 1477.761719 2087.039062 C 1436.339844 2087.039062 1402.761719 2053.460938 1402.761719 2012.039062 C 1402.761719 1970.621094 1436.339844 1937.039062 1477.761719 1937.039062 L 2522.238281 1937.039062 C 2563.660156 1937.039062 2597.238281 1970.621094 2597.238281 2012.039062 C 2597.238281 2053.460938 2563.660156 2087.039062 2522.238281 2087.039062 "/>
<path fill-rule="nonzero" fill="rgb(95.507812%, 94.9646%, 94.87915%)" fill-opacity="1" d="M 2000 2924.28125 C 1958.578125 2924.28125 1925 2890.699219 1925 2849.28125 L 1925 2019.601562 C 1925 1978.179688 1958.578125 1944.601562 2000 1944.601562 C 2041.421875 1944.601562 2075 1978.179688 2075 2019.601562 L 2075 2849.28125 C 2075 2890.699219 2041.421875 2924.28125 2000 2924.28125 "/>
<path fill-rule="nonzero" fill="rgb(95.507812%, 94.9646%, 94.87915%)" fill-opacity="1" d="M 3425 2961.761719 L 575 2961.761719 C 533.578125 2961.761719 500 2928.179688 500 2886.761719 C 500 2845.339844 533.578125 2811.761719 575 2811.761719 L 3425 2811.761719 C 3466.421875 2811.761719 3500 2845.339844 3500 2886.761719 C 3500 2928.179688 3466.421875 2961.761719 3425 2961.761719 "/>
</svg>
